<svg width="24" height="22" viewBox="0 0 24 22" fill="none" xmlns="http://www.w3.org/2000/svg">
<path d="M22.999 12.0674L21.999 13.0732L20.4844 11.5488V21H3.51465V11.5488L2 13.0732L1 12.0674L12 1L22.999 12.0674ZM10.5859 13.8857V19.5771H13.4141V13.8857H10.5859ZM14.8281 19.5771H19.0703V10.126L12 3.0127L4.92871 10.126V19.5771H9.17188V12.4629H14.8281V19.5771Z" fill="#3B0099"/>
<path d="M22.999 12.0674L23.1763 12.2436L23.3515 12.0674L23.1763 11.8912L22.999 12.0674ZM21.999 13.0732L21.8217 13.2494L21.999 13.4279L22.1763 13.2495L21.999 13.0732ZM20.4844 11.5488L20.6617 11.3726L20.2344 10.9425V11.5488H20.4844ZM20.4844 21V21.25H20.7344V21H20.4844ZM3.51465 21H3.26465V21.25H3.51465V21ZM3.51465 11.5488H3.76465V10.9425L3.3373 11.3726L3.51465 11.5488ZM2 13.0732L1.82271 13.2495L2.00005 13.4279L2.17734 13.2494L2 13.0732ZM1 12.0674L0.822684 11.8911L0.647498 12.0674L0.822708 12.2436L1 12.0674ZM12 1L12.1773 0.823772L12 0.645354L11.8227 0.823764L12 1ZM10.5859 13.8857V13.6357H10.3359V13.8857H10.5859ZM10.5859 19.5771H10.3359V19.8271H10.5859V19.5771ZM13.4141 19.5771V19.8271H13.6641V19.5771H13.4141ZM13.4141 13.8857H13.6641V13.6357H13.4141V13.8857ZM14.8281 19.5771H14.5781V19.8271H14.8281V19.5771ZM19.0703 19.5771V19.8271H19.3203V19.5771H19.0703ZM19.0703 10.126H19.3203V10.0229L19.2476 9.94974L19.0703 10.126ZM12 3.0127L12.1773 2.83645L12 2.65808L11.8227 2.83644L12 3.0127ZM4.92871 10.126L4.75141 9.94972L4.67871 10.0229V10.126H4.92871ZM4.92871 19.5771H4.67871V19.8271H4.92871V19.5771ZM9.17188 19.5771V19.8271H9.42188V19.5771H9.17188ZM9.17188 12.4629V12.2129H8.92188V12.4629H9.17188ZM14.8281 12.4629H15.0781V12.2129H14.8281V12.4629ZM22.999 12.0674L22.8217 11.8911L21.8217 12.897L21.999 13.0732L22.1763 13.2495L23.1763 12.2436L22.999 12.0674ZM21.999 13.0732L22.1764 12.897L20.6617 11.3726L20.4844 11.5488L20.307 11.725L21.8217 13.2494L21.999 13.0732ZM20.4844 11.5488H20.2344V21H20.4844H20.7344V11.5488H20.4844ZM20.4844 21V20.75H3.51465V21V21.25H20.4844V21ZM3.51465 21H3.76465V11.5488H3.51465H3.26465V21H3.51465ZM3.51465 11.5488L3.3373 11.3726L1.82266 12.897L2 13.0732L2.17734 13.2494L3.69199 11.725L3.51465 11.5488ZM2 13.0732L2.17729 12.897L1.17729 11.8911L1 12.0674L0.822708 12.2436L1.82271 13.2495L2 13.0732ZM1 12.0674L1.17732 12.2436L12.1773 1.17624L12 1L11.8227 0.823764L0.822684 11.8911L1 12.0674ZM12 1L11.8227 1.17623L22.8217 12.2436L22.999 12.0674L23.1763 11.8912L12.1773 0.823772L12 1ZM10.5859 13.8857H10.3359V19.5771H10.5859H10.8359V13.8857H10.5859ZM10.5859 19.5771V19.8271H13.4141V19.5771V19.3271H10.5859V19.5771ZM13.4141 19.5771H13.6641V13.8857H13.4141H13.1641V19.5771H13.4141ZM13.4141 13.8857V13.6357H10.5859V13.8857V14.1357H13.4141V13.8857ZM14.8281 19.5771V19.8271H19.0703V19.5771V19.3271H14.8281V19.5771ZM19.0703 19.5771H19.3203V10.126H19.0703H18.8203V19.5771H19.0703ZM19.0703 10.126L19.2476 9.94974L12.1773 2.83645L12 3.0127L11.8227 3.18894L18.893 10.3022L19.0703 10.126ZM12 3.0127L11.8227 2.83644L4.75141 9.94972L4.92871 10.126L5.10601 10.3022L12.1773 3.18895L12 3.0127ZM4.92871 10.126H4.67871V19.5771H4.92871H5.17871V10.126H4.92871ZM4.92871 19.5771V19.8271H9.17188V19.5771V19.3271H4.92871V19.5771ZM9.17188 19.5771H9.42188V12.4629H9.17188H8.92188V19.5771H9.17188ZM9.17188 12.4629V12.7129H14.8281V12.4629V12.2129H9.17188V12.4629ZM14.8281 12.4629H14.5781V19.5771H14.8281H15.0781V12.4629H14.8281Z" fill="#3B0099"/>
</svg>
